<svg xmlns="http://www.w3.org/2000/svg" height="110" viewBox="0 0 110 110">
  <path fill="#FFF" fill-rule="evenodd" stroke="#000" d="m98.63 63.173 7.875-3.608-7.064-5.015 7.018-5.078-7.906-3.541 5.893-6.347L96 37.654l4.542-7.376-8.659-.245 3.015-8.12-8.542 1.447 1.374-8.551-8.095 3.086-.322-8.657-7.336 4.608-2.005-8.427-6.297 5.951-3.611-7.875-5.013 7.064-5.08-7.018-3.539 7.906-6.349-5.892L38.154 14l-7.377-4.542-.244 8.66-8.121-3.015 1.449 8.542-8.553-1.374 3.088 8.095-8.657.321 4.608 7.336-8.428 2.006 5.95 6.297-7.874 3.609 7.064 5.014-7.019 5.08 7.908 3.54-5.894 6.347 8.445 1.93-4.541 7.378 8.659.242-3.014 8.123 8.541-1.449-1.373 8.553 8.094-3.089.323 8.657 7.337-4.607 2.004 8.426 6.297-5.948 3.609 7.871 5.016-7.061 5.076 7.019 3.542-7.908 6.348 5.892 1.93-8.446 7.376 4.542.245-8.66 8.12 3.017-1.447-8.543 8.552 1.375-3.088-8.097 8.656-.321-4.607-7.337 8.427-2.004-5.951-6.298Z"/>
</svg>
